<svg width="1046" height="576" xmlns="http://www.w3.org/2000/svg" xmlns:xlink="http://www.w3.org/1999/xlink" xml:space="preserve" overflow="hidden"><defs><clipPath id="clip0"><rect x="2204" y="438" width="1046" height="576"/></clipPath></defs><g clip-path="url(#clip0)" transform="translate(-2204 -438)"><path d="M2790.81 853.978C2794.79 853.978 2798.06 854.14 2800.64 854.462 2803.22 854.784 2805.29 855.24 2806.85 855.83 2808.41 856.421 2809.51 857.119 2810.16 857.924 2810.8 858.729 2811.12 859.668 2811.12 860.742L2811.12 899.068 2806.37 906.406C2805.08 908.231 2804.03 909.895 2803.22 911.398 2802.42 912.901 2801.77 914.377 2801.29 915.826 2800.81 917.276 2800.48 918.778 2800.32 920.335 2800.16 921.892 2800.08 923.636 2800.08 925.569L2800.08 932.976C2800.08 937.377 2800.86 940.544 2802.42 942.476 2803.98 944.409 2806.21 945.375 2809.11 945.375L2811.12 945.375 2811.12 1004.06C2811.12 1005.13 2810.8 1006.07 2810.16 1006.88 2809.51 1007.68 2808.41 1008.35 2806.85 1008.89 2805.29 1009.43 2803.22 1009.83 2800.64 1010.1 2798.06 1010.37 2794.79 1010.5 2790.81 1010.5 2786.83 1010.5 2783.55 1010.37 2780.97 1010.1 2778.4 1009.83 2776.33 1009.43 2774.77 1008.89 2773.21 1008.35 2772.11 1007.68 2771.46 1006.88 2770.82 1006.07 2770.49 1005.13 2770.49 1004.06L2770.49 983.806 2770.78 983.792C2772.99 983.523 2774.76 983.121 2776.1 982.584 2777.45 982.047 2778.39 981.376 2778.93 980.571 2779.46 979.766 2779.73 978.826 2779.73 977.753L2779.73 854.736 2780.97 854.462C2783.55 854.14 2786.83 853.978 2790.81 853.978ZM2662.68 827.672C2666.66 827.672 2669.94 827.806 2672.52 828.075 2675.1 828.344 2677.17 828.746 2678.72 829.283 2680.28 829.819 2681.38 830.49 2682.03 831.296 2682.67 832.101 2683 833.04 2683 834.114L2683 915.273C2683 922.788 2683.48 928.531 2684.45 932.503 2685.41 936.475 2686.89 939.884 2688.88 942.729 2690.87 945.573 2693.4 947.774 2696.46 949.331 2699.52 950.888 2703.1 951.666 2707.18 951.666 2712.34 951.666 2717.52 949.787 2722.74 946.03 2727.95 942.272 2733.51 936.797 2739.43 929.605L2739.43 834.114C2739.43 833.04 2739.72 832.101 2740.31 831.296 2740.9 830.49 2741.98 829.819 2743.54 829.283 2745.09 828.746 2747.16 828.344 2749.74 828.075 2752.32 827.806 2755.6 827.672 2759.58 827.672 2763.56 827.672 2766.83 827.806 2769.41 828.075L2772.04 828.592 2772.19 828.858 2776.58 829.929 2778.76 831.296C2779.41 832.101 2779.73 833.04 2779.73 834.114L2779.73 854.736 2774.77 855.83C2773.21 856.421 2772.11 857.119 2771.46 857.924 2770.82 858.729 2770.49 859.668 2770.49 860.742L2770.49 983.806 2762.48 984.194C2758.93 984.194 2756.06 984.06 2753.85 983.792 2751.65 983.523 2749.9 983.121 2748.61 982.584 2747.33 982.047 2746.41 981.376 2745.87 980.571 2745.34 979.766 2745.07 978.826 2745.07 977.753L2745.07 961.167C2737.11 969.755 2729.03 976.196 2720.8 980.49 2712.58 984.784 2704.06 986.932 2695.25 986.932 2685.36 986.932 2677.06 985.321 2670.34 982.101 2663.62 978.88 2658.19 974.479 2654.06 968.896 2649.92 963.314 2646.96 956.846 2645.19 949.492 2643.42 942.138 2642.53 932.986 2642.53 922.036L2642.53 834.114C2642.53 833.04 2642.82 832.101 2643.42 831.296 2644.01 830.49 2645.08 829.819 2646.64 829.283 2648.2 828.746 2650.29 828.344 2652.93 828.075 2655.56 827.806 2658.81 827.672 2662.68 827.672ZM2804.19 794.154 2809.35 795.444 2811.71 799.59 2807.13 799.403 2803.05 798.61 2804.11 794.248ZM2790.97 790.854 2796.65 792.272 2796.65 793.365C2796.65 794.438 2796.97 795.377 2797.62 796.182 2798.26 796.988 2799.36 797.659 2800.92 798.195L2803.05 798.61 2802.9 799.24C2802.63 801.333 2802.5 803.937 2802.5 807.05 2802.5 812.74 2803.12 816.873 2804.35 819.449 2805.59 822.026 2807.23 823.314 2809.27 823.314L2812.26 823.314 2809.19 828.697C2805.86 831.81 2799.68 833.366 2790.65 833.366L2776.58 829.929 2775.54 829.283 2772.04 828.592 2768.62 822.537C2767.83 819.826 2767.43 816.512 2767.43 812.594 2767.43 804.435 2769.07 798.772 2772.35 795.605 2775.63 792.438 2781.83 790.854 2790.97 790.854ZM2837.28 790.786 2890.81 790.786 2890.81 793.365C2890.81 794.438 2891.13 795.377 2891.77 796.182 2892.42 796.988 2893.52 797.659 2895.08 798.195 2896.64 798.732 2898.71 799.135 2901.29 799.403L2905.58 799.579 2905.84 802.219 2905.84 810.109C2905.84 812.256 2905.74 814.162 2905.52 815.826 2905.31 817.49 2904.98 819.074 2904.55 820.577 2904.12 822.079 2903.51 823.582 2902.7 825.085 2901.89 826.589 2900.95 828.198 2899.88 829.916L2846.35 912.847 2903.1 912.847C2904.07 912.847 2904.98 913.062 2905.84 913.491 2906.7 913.921 2907.43 914.726 2908.02 915.907 2908.61 917.088 2909.07 918.725 2909.39 920.818 2909.71 922.912 2909.88 925.569 2909.88 928.789 2909.88 931.902 2909.71 934.559 2909.39 936.76 2909.07 938.961 2908.64 940.705 2908.1 941.994 2907.56 943.282 2906.87 944.168 2906.01 944.651 2905.15 945.134 2904.18 945.375 2903.1 945.375L2811.12 945.375 2811.12 899.068 2860.22 823.314 2812.26 823.314 2812.94 822.135C2813.77 819.316 2814.19 815.868 2814.19 811.788 2814.19 807.87 2813.78 804.549 2812.98 801.825L2811.71 799.59 2816.96 799.806C2820.94 799.806 2824.22 799.671 2826.8 799.403 2829.38 799.135 2831.45 798.732 2833.01 798.195 2834.57 797.659 2835.67 796.988 2836.31 796.182 2836.96 795.377 2837.28 794.438 2837.28 793.365ZM2559.28 780.19C2554.01 780.19 2549.47 781.505 2545.66 784.135 2541.84 786.766 2538.78 790.281 2536.47 794.683 2534.16 799.084 2532.44 803.995 2531.31 809.417 2530.18 814.838 2529.61 820.394 2529.61 826.084 2529.61 832.095 2530.1 837.973 2531.06 843.716 2532.03 849.46 2533.62 854.532 2535.82 858.934 2538.02 863.335 2540.95 866.878 2544.61 869.562 2548.26 872.246 2552.88 873.588 2558.47 873.588 2561.27 873.588 2563.98 873.185 2566.62 872.38 2569.25 871.575 2571.94 870.26 2574.68 868.435 2577.42 866.609 2580.24 864.221 2583.14 861.269 2586.04 858.317 2589.21 854.694 2592.65 850.399L2592.65 802.734C2586.85 795.434 2581.29 789.852 2575.97 785.987 2570.65 782.122 2565.08 780.19 2559.28 780.19ZM3028.49 757.12 3068.57 757.12 3070.36 770.854C3071.81 775.846 3074.12 780.086 3077.29 783.575 3080.46 787.064 3084.55 789.721 3089.55 791.546 3094.55 793.371 3100.54 794.284 3107.52 794.284 3114.62 794.284 3120.85 793.774 3126.23 792.754 3131.6 791.734 3136.25 790.607 3140.17 789.372 3144.1 788.137 3147.35 787.01 3149.93 785.99 3152.51 784.971 3154.6 784.461 3156.21 784.461 3157.18 784.461 3157.99 784.649 3158.63 785.024 3159.28 785.4 3159.81 786.071 3160.24 787.037 3160.67 788.003 3160.97 789.372 3161.13 791.144 3161.29 792.915 3161.37 795.143 3161.37 797.826 3161.37 800.188 3161.32 802.201 3161.21 803.865 3161.1 805.529 3160.94 806.951 3160.73 808.132 3160.51 809.313 3160.19 810.306 3159.76 811.111 3159.33 811.916 3158.77 812.695 3158.07 813.446 3157.37 814.198 3155.46 815.218 3152.34 816.506 3149.23 817.794 3145.25 819.055 3140.41 820.29 3135.58 821.525 3130.04 822.598 3123.81 823.511 3117.57 824.423 3110.91 824.879 3103.82 824.879 3091.03 824.879 3079.82 823.269 3070.2 820.049 3060.58 816.828 3052.55 811.943 3046.1 805.395 3039.65 798.846 3034.84 790.58 3031.67 780.596ZM2984.96 757.12 3025.43 757.12 3025.43 793.365C3025.43 794.438 3025.11 795.377 3024.46 796.182 3023.82 796.988 3022.74 797.659 3021.24 798.195 3019.73 798.732 3017.69 799.135 3015.11 799.403 3012.53 799.671 3009.25 799.806 3005.28 799.806 3001.19 799.806 2997.86 799.671 2995.28 799.403 2992.7 799.135 2990.63 798.732 2989.07 798.195 2987.51 797.659 2986.44 796.988 2985.85 796.182 2985.26 795.377 2984.96 794.438 2984.96 793.365ZM2890.81 757.12 2931.27 757.12 2931.27 793.365C2931.27 794.438 2930.95 795.377 2930.31 796.182 2929.66 796.988 2928.56 797.659 2927 798.195 2925.44 798.732 2923.37 799.135 2920.79 799.403 2918.21 799.671 2914.99 799.806 2911.12 799.806L2905.58 799.579 2905.28 796.583C2904.9 795.08 2904.37 793.899 2903.67 793.04 2902.97 792.182 2902.08 791.591 2901.01 791.269 2899.93 790.947 2898.64 790.786 2897.14 790.786L2890.81 790.786ZM2801.15 757.12 2837.28 757.12 2837.28 790.786 2809.27 790.786C2808.09 790.786 2807.07 791.054 2806.21 791.591L2804.19 794.154 2796.65 792.272 2796.65 764.617 2796.88 764.572C2798.44 764.035 2799.54 763.365 2800.18 762.559 2800.83 761.754 2801.15 760.815 2801.15 759.741ZM2760.52 757.12 2796.65 757.12 2796.65 764.617 2790.67 765.78C2788.09 766.048 2784.81 766.182 2780.84 766.182 2776.86 766.182 2773.58 766.048 2771 765.78 2768.42 765.512 2766.35 765.109 2764.79 764.572 2763.24 764.035 2762.13 763.365 2761.49 762.559 2760.84 761.754 2760.52 760.815 2760.52 759.741ZM2672.67 757.12 2711.51 757.12 2708.81 758.596C2706.82 759.186 2704.8 759.481 2702.76 759.481L2684.7 759.481C2680.94 759.481 2677.69 759.105 2674.95 758.354ZM2535.15 757.12 2548.86 757.12 2550.4 758.274C2551.8 758.864 2553.74 759.32 2556.21 759.643 2558.68 759.965 2561.8 760.125 2565.56 760.125 2569.43 760.125 2572.6 759.965 2575.07 759.643 2577.54 759.32 2579.5 758.864 2580.96 758.274L2582.58 757.12 2582.85 757.12 2585.64 759.014C2589.56 762.181 2593.89 766.073 2598.62 770.689L2598.62 757.12 2632.96 757.12 2632.96 955.713C2632.96 956.787 2632.64 957.753 2631.99 958.612 2631.35 959.471 2630.27 960.195 2628.77 960.786 2627.26 961.376 2625.22 961.833 2622.64 962.155 2620.06 962.477 2616.78 962.638 2612.81 962.638 2608.83 962.638 2605.55 962.477 2602.97 962.155 2600.39 961.833 2598.32 961.376 2596.76 960.786 2595.21 960.195 2594.13 959.471 2593.54 958.612 2592.95 957.753 2592.65 956.787 2592.65 955.713L2592.65 887.436C2588.78 890.979 2585.02 894.065 2581.37 896.696 2577.71 899.326 2574.06 901.473 2570.4 903.137 2566.75 904.801 2562.99 906.008 2559.12 906.76 2555.25 907.512 2551.16 907.887 2546.86 907.887 2536.33 907.887 2527.36 905.767 2519.94 901.526 2512.52 897.286 2506.48 891.57 2501.8 884.377 2497.13 877.184 2493.71 868.784 2491.56 859.176 2489.41 849.567 2488.34 839.449 2488.34 828.821 2488.34 816.046 2489.74 804.559 2492.53 794.361 2495.33 784.162 2499.41 775.466 2504.78 768.274L2514.79 759.903 2519.57 760.126C2522.9 760.126 2525.67 759.992 2527.87 759.723 2530.07 759.455 2531.85 759.052 2533.19 758.515ZM2503.8 757.12 2518.12 757.12 2514.79 759.903 2510.94 759.723C2508.74 759.455 2506.99 759.052 2505.7 758.515ZM2426.3 757.12 2476.08 757.12 2465.33 761.253C2461.08 762.327 2456.74 762.863 2452.34 762.863 2442.45 762.863 2434.14 761.253 2427.43 758.032ZM2536.82 747.509 2536.82 753.685C2536.82 754.758 2536.55 755.698 2536.01 756.503L2535.15 757.12 2518.12 757.12 2524.62 751.687ZM2551.86 745.89C2555.84 745.89 2559.66 746.293 2563.31 747.098 2566.96 747.903 2570.62 749.299 2574.27 751.285L2582.71 757.026 2582.58 757.12 2548.86 757.12 2547.5 756.1C2546.96 755.241 2546.7 754.275 2546.7 753.201L2546.7 746.405ZM2502.16 737.099 2502.16 753.685C2502.16 754.758 2502.42 755.698 2502.96 756.503L2503.8 757.12 2476.08 757.12 2477.89 756.422C2486.11 752.128 2494.2 745.687 2502.16 737.099ZM3099.3 691.546C3109.51 691.546 3117.06 694.793 3121.95 701.289 3126.84 707.783 3129.13 716.721 3128.81 728.1L3068.19 728.1C3068.4 723.054 3069.18 718.304 3070.52 713.849 3071.87 709.394 3073.8 705.529 3076.33 702.254 3078.85 698.98 3082.02 696.377 3085.84 694.445 3089.65 692.512 3094.14 691.546 3099.3 691.546ZM2962.07 675.812C2966.04 675.812 2969.46 676.59 2972.31 678.147 2975.15 679.704 2977.52 681.904 2979.4 684.749 2981.28 687.594 2982.68 691.003 2983.59 694.975 2984.51 698.947 2984.96 703.348 2984.96 708.179L2984.96 757.12 2931.27 757.12 2931.27 697.873C2937.08 690.68 2942.45 685.206 2947.4 681.448 2952.34 677.691 2957.23 675.812 2962.07 675.812ZM2868.07 675.812C2871.94 675.812 2875.33 676.59 2878.23 678.147 2881.13 679.704 2883.5 681.904 2885.32 684.749 2887.15 687.594 2888.52 691.003 2889.44 694.975 2890.35 698.947 2890.81 703.348 2890.81 708.179L2890.81 757.12 2837.28 757.12 2837.28 697.873C2842.98 690.68 2848.3 685.206 2853.24 681.448 2858.18 677.691 2863.13 675.812 2868.07 675.812ZM2801.15 644.717 2801.15 757.12 2796.65 757.12 2796.65 649.725C2796.65 648.652 2796.92 647.712 2797.46 646.907 2797.99 646.102 2798.96 645.431 2800.36 644.894ZM2780.84 609.661C2784.81 609.661 2788.09 609.822 2790.67 610.144L2792.6 610.57 2792.6 644.077C2792.6 645.15 2792.25 646.116 2791.55 646.975 2790.86 647.834 2789.7 648.531 2788.09 649.068 2786.48 649.605 2784.3 650.035 2781.56 650.357 2778.82 650.679 2775.41 650.84 2771.32 650.84 2767.24 650.84 2763.82 650.679 2761.08 650.357L2760.52 650.246 2760.52 616.424C2760.52 615.35 2760.84 614.411 2761.49 613.606 2762.13 612.801 2763.24 612.103 2764.79 611.513 2766.35 610.922 2768.42 610.466 2771 610.144 2773.58 609.822 2776.86 609.661 2780.84 609.661ZM2419.77 603.604 2427.5 603.921 2427.25 604.957C2426.66 606.352 2425.99 607.346 2425.23 607.936 2424.48 608.526 2423.62 608.821 2422.65 608.821L2400 608.821 2400.5 607.227C2401.09 606.422 2402.17 605.751 2403.73 605.214 2405.29 604.678 2407.38 604.275 2410.01 604.007 2412.65 603.738 2415.9 603.604 2419.77 603.604ZM2583.62 597.323 2583.94 597.323C2586.41 603.657 2589.21 610.179 2592.32 616.889 2595.44 623.599 2598.5 629.852 2601.51 635.649L2653.43 733.072C2656.11 738.44 2658.53 742.815 2660.68 746.196 2662.83 749.578 2665.06 752.262 2667.37 754.248L2672.67 757.12 2632.96 757.12 2632.96 755.069C2632.96 753.996 2632.69 753.056 2632.15 752.251 2631.62 751.446 2630.7 750.775 2629.41 750.238 2628.12 749.702 2626.38 749.299 2624.17 749.03 2621.97 748.762 2619.26 748.628 2616.03 748.628 2612.59 748.628 2609.8 748.762 2607.65 749.03 2605.5 749.299 2603.75 749.702 2602.41 750.238 2601.06 750.775 2600.1 751.446 2599.51 752.251 2598.91 753.056 2598.62 753.996 2598.62 755.069L2598.62 757.12 2582.85 757.12 2582.71 757.026 2584.02 756.1C2584.61 755.241 2584.91 754.275 2584.91 753.201L2584.91 644.183C2584.91 636.024 2584.8 628.107 2584.58 620.432 2584.37 612.755 2584.05 605.053 2583.62 597.323ZM2781 546.537 2792.6 549.434 2792.6 586.045 2780.68 589.049C2771.54 589.049 2765.39 587.546 2762.22 584.54 2759.04 581.534 2757.46 576.113 2757.46 568.276 2757.46 560.117 2759.1 554.454 2762.38 551.287 2765.65 548.12 2771.86 546.537 2781 546.537ZM2792.6 540.662 3246.5 540.662 3246.5 757.12 3068.57 757.12 3068.19 754.187 3155.73 754.187C3159.6 754.187 3162.64 753.006 3164.84 750.644 3167.04 748.283 3168.15 744.632 3168.15 739.694L3168.15 733.253C3168.15 723.162 3166.85 713.822 3164.28 705.234 3161.7 696.645 3157.67 689.211 3152.18 682.931 3146.7 676.651 3139.69 671.739 3131.14 668.197 3122.6 664.654 3112.31 662.883 3100.27 662.883 3088.88 662.883 3078.64 664.761 3069.56 668.519 3060.47 672.276 3052.76 677.724 3046.42 684.863 3040.08 692.002 3035.24 700.698 3031.91 710.95 3028.58 721.203 3026.91 732.716 3026.91 745.492L3028.49 757.12 3025.43 757.12 3025.43 701.416C3025.43 693.15 3024.57 685.313 3022.85 677.905 3021.13 670.498 3018.26 664.03 3014.22 658.501 3010.19 652.973 3004.9 648.598 2998.34 645.378 2991.79 642.157 2983.73 640.546 2974.16 640.546 2969.97 640.546 2965.86 641.056 2961.83 642.076 2957.8 643.096 2953.76 644.653 2949.73 646.746 2945.7 648.839 2941.62 651.55 2937.48 654.878 2933.34 658.206 2929.12 662.178 2924.82 666.794 2923 662.822 2920.74 659.226 2918.05 656.005 2915.37 652.785 2912.17 650.02 2908.46 647.712 2904.75 645.404 2900.53 643.633 2895.8 642.398 2891.07 641.164 2885.75 640.546 2879.84 640.546 2871.24 640.546 2862.99 642.693 2855.09 646.987 2847.19 651.282 2839.27 657.723 2831.31 666.311L2831.31 649.725C2831.31 648.652 2831.04 647.712 2830.51 646.907 2829.97 646.102 2829.08 645.431 2827.85 644.894 2826.61 644.358 2824.86 643.955 2822.61 643.686 2820.35 643.418 2817.5 643.284 2814.06 643.284 2810.73 643.284 2807.96 643.418 2805.76 643.686L2801.15 644.717 2801.15 616.424C2801.15 615.35 2800.83 614.411 2800.18 613.606 2799.54 612.801 2798.44 612.103 2796.88 611.513L2792.6 610.57 2792.6 586.045 2799.22 584.379C2802.55 581.266 2804.21 575.63 2804.21 567.471 2804.21 559.634 2802.6 554.186 2799.38 551.126L2792.6 549.434ZM2358.65 540.662 2750.04 540.662 2750.04 644.077C2750.04 645.15 2750.39 646.116 2751.09 646.975 2751.79 647.834 2752.94 648.531 2754.55 649.068L2760.52 650.246 2760.52 757.12 2711.51 757.12 2713.97 755.778C2715.42 754.489 2716.57 752.879 2717.43 750.947 2718.29 749.014 2718.72 746.814 2718.72 744.345L2718.72 557.066C2718.72 555.992 2718.45 555.026 2717.92 554.168 2717.38 553.308 2716.44 552.557 2715.1 551.913 2713.75 551.269 2711.84 550.813 2709.37 550.544 2706.9 550.276 2703.84 550.141 2700.18 550.141 2696.31 550.141 2693.14 550.276 2690.67 550.544 2688.2 550.813 2686.21 551.269 2684.7 551.913 2683.2 552.557 2682.13 553.308 2681.48 554.168 2680.84 555.026 2680.51 555.992 2680.51 557.066L2680.51 654.811C2680.51 662.219 2680.59 670.002 2680.75 678.161 2680.92 686.32 2681.16 694.156 2681.48 701.671L2681.32 701.671C2679.38 697.377 2677.4 693.083 2675.35 688.789 2673.31 684.495 2671.22 680.12 2669.07 675.665 2666.92 671.21 2664.69 666.755 2662.38 662.299 2660.06 657.844 2657.73 653.308 2655.36 648.692L2614.73 572.525C2612.69 568.338 2610.7 564.822 2608.77 561.977 2606.83 559.132 2604.76 556.905 2602.56 555.295 2600.36 553.684 2597.86 552.53 2595.06 551.833 2592.27 551.135 2588.83 550.786 2584.74 550.786L2562.01 550.786C2557.71 550.786 2554.08 552.047 2551.13 554.57 2548.17 557.093 2546.7 560.877 2546.7 565.923L2546.7 746.405 2537.31 747.34 2536.82 747.509 2536.82 610.045C2536.82 608.972 2536.5 608.033 2535.85 607.227 2535.21 606.422 2534.13 605.751 2532.63 605.214 2531.12 604.678 2529.08 604.275 2526.5 604.007 2523.92 603.738 2520.64 603.604 2516.67 603.604 2512.69 603.604 2509.41 603.738 2506.83 604.007 2504.25 604.275 2502.18 604.678 2500.62 605.214 2499.06 605.751 2497.99 606.422 2497.4 607.227 2496.81 608.033 2496.51 608.972 2496.51 610.045L2496.51 705.536C2490.6 712.729 2485.04 718.204 2479.83 721.961 2474.61 725.719 2469.43 727.598 2464.27 727.598 2460.18 727.598 2456.61 726.819 2453.55 725.263 2450.48 723.706 2447.96 721.505 2445.97 718.66 2443.98 715.815 2442.5 712.407 2441.53 708.435 2440.57 704.463 2440.08 698.72 2440.08 691.205L2440.08 610.045C2440.08 608.972 2439.76 608.033 2439.12 607.227 2438.47 606.422 2437.37 605.751 2435.81 605.214 2434.25 604.678 2432.18 604.275 2429.6 604.007L2427.5 603.921 2428.54 599.643C2428.81 597.496 2428.94 594.812 2428.94 591.591 2428.94 588.371 2428.81 585.687 2428.54 583.54 2428.27 581.393 2427.84 579.675 2427.25 578.387 2426.66 577.099 2425.99 576.186 2425.23 575.649 2424.48 575.112 2423.62 574.844 2422.65 574.844L2358.65 574.844ZM2207.5 540.662 2316.08 540.662 2316.08 686.438C2316.08 687.619 2316.43 688.639 2317.13 689.498 2317.83 690.357 2318.99 691.081 2320.6 691.672 2322.21 692.262 2324.39 692.719 2327.13 693.041 2329.87 693.363 2333.28 693.524 2337.36 693.524 2341.56 693.524 2345 693.363 2347.68 693.041 2350.37 692.719 2352.55 692.262 2354.21 691.672 2355.88 691.081 2357.03 690.357 2357.68 689.498 2358.32 688.639 2358.65 687.619 2358.65 686.438L2358.65 608.821 2400 608.821 2399.62 610.045 2399.62 697.968C2399.62 708.918 2400.5 718.07 2402.28 725.424 2404.05 732.777 2407 739.246 2411.14 744.828L2426.3 757.12 2207.5 757.12ZM2328.66 484.184 2426.85 484.184C2427.81 484.184 2428.67 484.479 2429.43 485.069 2430.18 485.66 2430.85 486.626 2431.44 487.968 2432.03 489.31 2432.46 491.108 2432.73 493.363 2433 495.617 2433.13 498.354 2433.13 501.575 2433.13 504.796 2433 507.506 2432.73 509.707 2432.46 511.908 2432.03 513.652 2431.44 514.941 2430.85 516.229 2430.18 517.195 2429.43 517.839 2428.67 518.483 2427.81 518.805 2426.85 518.805L2358.65 518.805 2358.65 540.662 2316.08 540.662 2316.08 497.549C2316.08 492.826 2317.29 489.417 2319.71 487.324 2322.13 485.23 2325.11 484.184 2328.66 484.184ZM2697.8 441.5 2844.84 441.5C2845.81 441.5 2846.69 441.795 2847.5 442.386 2848.31 442.976 2848.98 443.942 2849.52 445.284 2850.05 446.626 2850.46 448.424 2850.72 450.679 2850.99 452.933 2851.13 455.671 2851.13 458.891 2851.13 462.004 2850.99 464.661 2850.72 466.862 2850.46 469.063 2850.05 470.834 2849.52 472.176 2848.98 473.518 2848.31 474.511 2847.5 475.155 2846.69 475.799 2845.81 476.121 2844.84 476.121L2792.6 476.121 2792.6 540.662 2750.04 540.662 2750.04 476.121 2697.8 476.121C2696.73 476.121 2695.81 475.799 2695.06 475.155 2694.31 474.511 2693.66 473.518 2693.13 472.176 2692.59 470.834 2692.19 469.063 2691.92 466.862 2691.65 464.661 2691.51 462.004 2691.51 458.891 2691.51 455.671 2691.65 452.933 2691.92 450.679 2692.19 448.424 2692.59 446.626 2693.13 445.284 2693.66 443.942 2694.31 442.976 2695.06 442.386 2695.81 441.795 2696.73 441.5 2697.8 441.5Z" stroke="#FFFFFF" stroke-width="6.875" stroke-miterlimit="8" fill="#385723" fill-rule="evenodd"/></g></svg>